<?xml version="1.0" standalone="no"?>
<!DOCTYPE svg PUBLIC "-//W3C//DTD SVG 20010904//EN"
 "http://www.w3.org/TR/2001/REC-SVG-20010904/DTD/svg10.dtd">
<svg version="1.0" xmlns="http://www.w3.org/2000/svg"
 width="2000.000000pt" height="395.000000pt" viewBox="0 0 2000.000000 395.000000"
 preserveAspectRatio="xMidYMid meet">
<metadata>
Created by potrace 1.16, written by Peter Selinger 2001-2019
</metadata>
<g transform="translate(0.000000,395.000000) scale(0.100000,-0.100000)"
fill="#000000" stroke="none">
<path d="M3125 2914 c-153 -21 -300 -90 -395 -184 -127 -127 -189 -282 -189
-470 0 -250 122 -457 339 -577 107 -59 271 -87 425 -72 223 21 418 150 521
345 24 46 54 152 63 227 26 214 -51 426 -206 567 -60 55 -204 130 -287 149
-52 13 -222 22 -271 15z m175 -188 c163 -29 275 -109 344 -245 33 -63 46 -126
46 -222 0 -165 -54 -281 -174 -373 -90 -68 -177 -96 -305 -96 -134 0 -245 46
-341 142 -71 70 -107 141 -125 244 -39 223 74 437 275 519 37 15 150 40 195
44 6 0 44 -6 85 -13z"/>
<path d="M1082 2263 l3 -648 90 0 90 0 3 257 2 258 318 2 317 3 0 90 0 90
-317 3 -318 2 0 205 0 205 360 0 361 0 -3 88 -3 87 -453 3 -452 2 2 -647z"/>
<path d="M4582 2263 l3 -648 95 0 95 0 3 193 2 192 189 0 188 0 61 -87 c34
-49 65 -92 70 -98 4 -5 36 -50 71 -100 35 -49 69 -93 75 -97 16 -11 204 -10
211 1 3 6 -23 49 -57 96 -35 48 -70 96 -78 108 -8 12 -47 68 -87 124 -76 107
-76 105 -19 133 101 51 181 174 197 305 30 236 -81 420 -296 490 -84 28 -180
35 -448 35 l-277 0 2 -647z m661 437 c112 -42 162 -119 162 -245 0 -126 -50
-202 -162 -246 -52 -20 -80 -23 -260 -27 l-203 -4 0 277 0 278 203 -5 c177 -5
209 -8 260 -28z"/>
<path d="M6312 2263 l3 -648 460 0 460 0 3 93 3 92 -371 0 -370 0 0 190 0 190
320 0 320 0 0 90 0 90 -320 0 -320 0 0 185 0 185 358 2 357 3 0 85 0 85 -453
3 -452 2 2 -647z"/>
<path d="M7730 2897 c0 -7 4 -17 8 -22 5 -6 18 -33 30 -61 11 -27 37 -85 56
-127 20 -42 36 -79 36 -81 0 -3 15 -37 34 -78 18 -40 46 -102 61 -138 15 -36
44 -103 66 -148 21 -46 39 -86 39 -88 0 -2 13 -32 29 -66 15 -35 54 -121 85
-193 31 -71 73 -164 94 -205 l37 -75 83 -3 83 -3 26 58 c14 32 41 91 59 131
19 41 34 75 34 77 0 2 15 36 34 77 18 40 55 123 81 183 26 61 58 133 70 160
13 28 32 70 43 95 11 25 65 147 121 272 55 125 101 232 101 238 0 7 -35 10
-101 8 l-101 -3 -74 -165 c-99 -224 -117 -264 -186 -420 -33 -74 -70 -157 -83
-185 -12 -27 -39 -89 -60 -137 -20 -49 -41 -88 -44 -88 -7 0 -42 72 -77 155
-9 22 -24 58 -34 80 -10 22 -71 159 -135 305 -64 146 -125 285 -137 310 -11
25 -27 61 -35 80 -29 68 -22 65 -137 68 -83 2 -106 0 -106 -11z"/>
<path d="M9622 2263 l3 -648 465 0 465 0 0 90 0 90 -367 3 -368 2 0 190 0 190
320 0 320 0 0 90 0 90 -320 0 -320 0 0 185 0 185 355 0 355 0 0 90 0 90 -455
0 -455 0 2 -647z"/>
<path d="M11262 2263 l3 -648 75 -3 c126 -5 115 -23 112 198 l-3 190 194 0
194 0 26 -37 c82 -121 226 -321 243 -338 12 -11 39 -15 114 -15 54 0 101 4
104 8 4 7 -38 73 -139 212 -11 15 -40 56 -64 91 -24 35 -55 77 -68 92 -13 16
-23 32 -23 36 0 4 17 15 39 24 47 21 130 99 158 148 71 124 76 315 12 445 -48
97 -132 165 -264 212 -68 24 -176 32 -438 32 l-277 0 2 -647z m661 437 c139
-53 201 -199 147 -343 -28 -73 -73 -119 -147 -148 -53 -21 -75 -23 -263 -23
l-205 -1 -3 274 -2 274 207 -5 c183 -5 215 -8 266 -28z"/>
<path d="M12985 2898 c-3 -7 -4 -299 -3 -648 l3 -635 440 0 440 0 3 93 3 92
-346 0 -345 0 0 555 0 555 -95 0 c-67 0 -97 -4 -100 -12z"/>
<path d="M14807 2808 c-26 -57 -81 -177 -123 -268 -41 -91 -92 -201 -111 -245
-20 -44 -58 -127 -84 -184 -27 -57 -49 -105 -49 -107 0 -1 -25 -55 -55 -119
-30 -65 -55 -119 -55 -121 0 -2 -14 -32 -30 -66 -17 -34 -28 -68 -26 -75 4 -9
33 -13 101 -13 l96 0 31 68 c16 37 41 92 55 122 14 30 34 74 44 98 l18 42 320
0 321 0 20 -45 c11 -25 30 -66 41 -92 12 -27 37 -81 55 -120 l33 -73 96 0 c72
0 97 3 101 14 3 7 -20 66 -50 130 -31 65 -56 119 -56 120 0 2 -22 52 -50 110
-27 58 -50 108 -50 110 0 2 -22 50 -49 107 -26 57 -110 240 -186 407 l-138
302 -87 0 -87 0 -46 -102z m162 -220 c15 -35 38 -85 51 -113 13 -27 37 -84 55
-125 18 -41 49 -109 68 -152 20 -42 33 -79 30 -82 -8 -7 -473 -8 -473 -1 0 3
23 56 51 118 28 61 56 126 64 142 26 61 58 132 86 193 16 34 29 67 29 72 0 23
13 6 39 -52z"/>
<path d="M16195 2898 c-3 -7 -4 -299 -3 -648 l3 -635 95 0 95 0 5 463 5 462
157 -197 c87 -109 213 -268 280 -353 68 -86 135 -171 151 -190 15 -19 45 -57
66 -85 82 -106 82 -106 163 -103 l73 3 3 648 2 647 -100 0 -100 0 -2 -461 -3
-462 -45 58 c-25 32 -67 86 -95 120 -27 34 -63 80 -80 101 -16 21 -102 128
-190 239 -88 110 -169 212 -180 226 -11 14 -38 48 -60 76 -22 27 -49 61 -60
76 -18 25 -25 27 -98 27 -53 0 -79 -4 -82 -12z"/>
<path d="M18082 2263 l3 -648 465 0 465 0 0 90 0 90 -367 3 -368 2 0 190 0
190 315 0 315 0 0 90 0 90 -315 0 -315 0 0 185 0 185 355 0 355 0 0 90 0 90
-455 0 -455 0 2 -647z"/>
</g>
</svg>
